<?xml version="1.0" encoding="UTF-8" standalone="no"?>
<svg
   xmlns:dc="http://purl.org/dc/elements/1.1/"
   xmlns:cc="http://creativecommons.org/ns#"
   xmlns:rdf="http://www.w3.org/1999/02/22-rdf-syntax-ns#"
   xmlns:svg="http://www.w3.org/2000/svg"
   xmlns="http://www.w3.org/2000/svg"
   xmlns:sodipodi="http://sodipodi.sourceforge.net/DTD/sodipodi-0.dtd"
   xmlns:inkscape="http://www.inkscape.org/namespaces/inkscape"
   version="1.1"
   width="24.33333cm"
   height="19.35792cm"
   style="clip-rule:evenodd;fill-rule:evenodd;image-rendering:optimizeQuality;shape-rendering:geometricPrecision;text-rendering:geometricPrecision"
   id="svg246"
   sodipodi:docname="md-cargas.svg"
   inkscape:version="1.0.2-2 (e86c870879, 2021-01-15)">
  <metadata
     id="metadata252">
    <rdf:RDF>
      <cc:Work
         rdf:about="">
        <dc:format>image/svg+xml</dc:format>
        <dc:type
           rdf:resource="http://purl.org/dc/dcmitype/StillImage" />
        <dc:title></dc:title>
      </cc:Work>
    </rdf:RDF>
  </metadata>
  <defs
     id="defs250" />
  <sodipodi:namedview
     pagecolor="#ffffff"
     bordercolor="#666666"
     borderopacity="1"
     objecttolerance="10"
     gridtolerance="10"
     guidetolerance="10"
     inkscape:pageopacity="0"
     inkscape:pageshadow="2"
     inkscape:window-width="1629"
     inkscape:window-height="883"
     id="namedview248"
     showgrid="false"
     units="cm"
     inkscape:zoom="0.45166446"
     inkscape:cx="436.15535"
     inkscape:cy="411.3171"
     inkscape:window-x="0"
     inkscape:window-y="0"
     inkscape:window-maximized="0"
     inkscape:current-layer="svg246" />
  <g
     id="g1151"
     transform="matrix(0.99643672,0,0,0.99643672,1012.3946,231.07876)">
    <path
       style="fill:#e00311"
       d="m -608.16417,343.62623 c -0.3348,-0.87247 -0.60873,-77.54441 -0.60873,-170.38208 0,-144.02634 0.20689,-168.96747 1.4099,-169.96588 1.06721,-0.88571 38.31537,-1.08138 153.25,-0.80504 163.7704,0.39376 154.1928,0.0997 183.3401,5.62847 23.7899,4.51255 43.4211,10.85819 63.7249,20.59862 35.8791,17.21244 60.8741,40.59955 76.2022,71.30027 18.2899,36.63265 20.9964,91.06437 6.5238,131.2029 -15.7341,43.6374 -50.525,76.29818 -101.5596,95.34143 -16.5124,6.16152 -43.3856,13.11053 -55.6553,14.39164 l -5.2641,0.54963 0.2641,-32.2479 0.264,-32.2479 9.0735,-3.23933 c 17.3066,-6.17866 27.5559,-11.72026 39.198,-21.19358 18.7827,-15.28372 31.012,-37.361 34.3025,-61.92556 1.6674,-12.44778 0.6326,-34.50024 -2.1318,-45.42843 -10.8996,-43.08902 -49.0619,-71.52418 -107.4677,-80.07538 -12.4575,-1.82391 -18.7571,-1.92002 -110.09404,-1.67961 l -96.88046,0.25499 -0.25438,110.24249 -0.25439,110.24248 62.75439,0.25752 62.75438,0.25751 v 30 30 l -106.14127,0.25453 c -96.14095,0.23055 -106.19863,0.10507 -106.75,-1.33179 z"
       id="path1155" />
    <path
       style="fill:#223086"
       d="m -394.32962,490.91628 c -0.27537,-0.71762 -0.37527,-7.80907 -0.22198,-15.75878 l 0.2787,-14.45401 15.74601,-0.27537 15.74601,-0.27538 2.61799,-5.22462 c 4.55129,-9.08292 3.68606,-8.72463 21.06969,-8.72463 h 15.3698 l 0.9753,2.5651 c 0.5363,1.4108 0.9821,3.9983 0.9905,5.75 0.027,5.54116 0.2399,5.61107 18.0278,5.90914 l 16.4569,0.27576 v 15.5 15.5 l -53.278,0.25878 c -43.07689,0.20923 -53.3739,0.009 -53.77872,-1.04599 z m -570.8646,-30.81612 c -11.17294,-3.84236 -19.30721,-11.35603 -23.70639,-21.89772 -1.94932,-4.67111 -2.30062,-7.3055 -2.33354,-17.49895 -0.0342,-10.60482 0.29867,-13.02951 2.86346,-20.85486 4.97786,-15.1878 14.58401,-27.5123 27.09779,-34.76589 18.61778,-10.79176 45.92626,-10.96974 59.78261,-0.38963 6.73451,5.14218 10.89281,14.0407 11.07767,23.70555 l 0.13972,7.30483 h -14.84297 -14.84298 l -1.36514,-4 c -0.75083,-2.2 -2.74109,-5.2375 -4.4228,-6.75 -2.54124,-2.28554 -3.97293,-2.75 -8.47679,-2.75 -6.6686,0 -9.28694,0.95271 -14.0063,5.09637 -11.84896,10.40353 -15.60591,37.72083 -6.40064,46.54004 2.2784,2.18284 4.03389,2.82105 8.68516,3.1575 7.82904,0.5663 13.2033,-2.12708 17.14125,-8.59056 5.19002,-8.51854 4.44428,-8.20335 19.40877,-8.20335 9.52247,0 13.67821,0.36227 14.42086,1.25712 1.51096,1.82058 -1.67555,10.19912 -6.68365,17.57388 -6.92536,10.19803 -18.68949,18.37428 -31.24573,21.71624 -8.22037,2.18793 -25.02075,1.84945 -32.29036,-0.65057 z m 454.92132,0.70118 c -19.38255,-6.14598 -29.14949,-23.46302 -26.43638,-46.87241 3.09046,-26.66526 18.82068,-46.26699 43.93638,-54.74996 9.18277,-3.10153 24.98975,-3.06148 33.50922,0.0849 7.25321,2.67874 12.6108,6.4318 16.53805,11.5851 3.29978,4.32995 6.95273,14.81681 6.95273,19.95984 v 3.39466 h -14.49488 -14.49487 l -2.01728,-4.29157 c -2.58557,-5.50054 -6.33242,-7.70841 -13.08154,-7.70841 -13.30467,0 -21.69065,9.58349 -24.99626,28.56574 -2.06307,11.84703 1.78697,21.74055 9.75602,25.07023 7.44587,3.11109 18.93768,0.76839 24.18358,-4.93002 3.18968,-3.46483 2.04118,-4.70595 -4.35477,-4.70595 -2.96008,0 -5.59833,-0.35008 -5.86277,-0.77796 -0.59308,-0.95963 2.05376,-15.88373 3.36476,-18.97204 0.94412,-2.22405 1.18062,-2.25 20.50796,-2.25 16.95117,0 19.63402,0.2116 20.16307,1.59029 0.33564,0.87466 -0.35023,7.28716 -1.52414,14.25 -3.47355,20.60266 -6.09059,35.50627 -6.65686,37.90971 -0.50317,2.13561 -1.00668,2.25 -9.90408,2.25 -9.8902,0 -11.04017,-0.55466 -9.93243,-4.79069 0.84389,-3.22703 -1.49595,-3.56839 -5.183,-0.75614 -1.89257,1.44354 -6.3834,3.73211 -9.97961,5.08572 -5.38135,2.02554 -8.26009,2.44927 -16.26573,2.39421 -5.34994,-0.0368 -11.52717,-0.63765 -13.72717,-1.33525 z m 296.7301,-0.14825 c -14.6655,-3.94833 -22.5102,-12.2683 -23.8745,-25.32112 -0.9515,-9.10345 -0.9058,-9.12848 16.6352,-9.12848 h 14.7459 l 0.5569,4.15258 c 0.8431,6.28548 4.2318,9.11313 11.5561,9.64293 9.8971,0.71589 17.1503,-3.2724 17.1503,-9.43037 0,-3.77685 -3.2889,-6.08562 -12.7031,-8.91727 -27.0071,-8.12344 -31.7036,-10.52517 -35.3629,-18.08414 -2.8902,-5.97047 -2.3105,-14.5464 1.5675,-23.18773 7.5156,-16.74705 29.3636,-26.27036 52.9985,-23.10147 17.9976,2.41306 26.9822,10.12336 28.2636,24.25487 0.7503,8.27504 0.051,8.6706 -15.3323,8.6706 -12.8999,0 -13.6193,-0.2443 -14.7522,-5.01008 -0.8769,-3.68856 -5.5134,-5.98992 -12.0676,-5.98992 -4.7125,0 -6.0723,0.4399 -8.7469,2.82966 -2.4711,2.20796 -3.0329,3.36364 -2.5569,5.26007 0.8927,3.55703 4.907,5.47392 19.7249,9.41895 14.6628,3.90375 23.9481,8.27466 27.4685,12.93038 9.9721,13.18811 1.1087,36.90103 -17.2036,46.02606 -12.3721,6.16503 -34.976,8.50901 -48.0674,4.98448 z m -637.2301,-1.33737 c 0,-0.48827 6.00535,-11.85077 13.34523,-25.25 7.33987,-13.39923 19.11293,-34.93723 26.16234,-47.86223 7.04942,-12.925 13.49903,-24.29879 14.33247,-25.27509 1.34797,-1.57902 3.18017,-1.7447 16.58765,-1.5 l 15.07231,0.27509 2.71858,13.5 c 10.85673,53.91274 16.70739,85.47403 15.97962,86.2018 -0.46868,0.46868 -7.77877,0.72752 -16.24463,0.57518 l -15.39247,-0.27698 -1.03055,-6.5 -1.03055,-6.5 -16.22501,-0.27465 -16.22502,-0.27465 -3.53756,7.02465 -3.53755,7.02465 h -15.48743 c -8.51809,0 -15.48743,-0.3995 -15.48743,-0.88777 z m 67.40462,-35.9579 c 0.73691,-1.19234 -2.40558,-26.46609 -3.42337,-27.5328 -0.8815,-0.92386 -13.98125,24.24659 -13.98125,26.86419 0,1.23278 1.56918,1.51428 8.44098,1.51428 4.64254,0 8.67618,-0.38055 8.96364,-0.84567 z m 90.59538,34.25302 c 0,-1.42596 2.45161,-16.61346 5.44802,-33.75 2.99641,-17.13654 6.61522,-37.90735 8.04179,-46.15735 1.42658,-8.25 2.83705,-15.80879 3.13439,-16.79732 0.50922,-1.69295 2.5872,-1.78006 35.78194,-1.5 l 35.24132,0.29732 5.88753,3.01254 c 3.93431,2.01311 6.89565,4.44692 8.92627,7.33614 2.82238,4.01576 3.03774,4.94047 3.02471,12.98746 -0.0121,7.48551 -0.38589,9.37288 -2.74814,13.87694 -3.34139,6.37099 -8.07611,11.89337 -11.88627,13.86368 -3.48512,1.80222 -3.58279,3.06021 -0.43016,5.54007 5.42451,4.26692 6.70687,12.24252 5.44791,33.88317 l -0.55267,9.5 -15.15832,0.27605 c -11.68809,0.21285 -15.20466,-0.0161 -15.36075,-1 -0.11134,-0.70183 -0.22384,-7.49854 -0.25,-15.1038 l -0.0476,-13.82775 -2.80576,-2.42225 c -2.59927,-2.24398 -3.60982,-2.42225 -13.73095,-2.42225 -10.51091,0 -10.94467,0.0853 -11.43901,2.25 -0.2826,1.2375 -1.61504,8.66318 -2.96097,16.50151 -1.34593,7.83833 -2.72484,14.70083 -3.06424,15.25 -0.36623,0.59257 -6.69116,0.99849 -15.55809,0.99849 h -14.94098 z m 68.09587,-56.69242 c 3.20008,-2.14866 4.90413,-5.71953 4.90413,-10.27668 0,-2.83908 -0.58912,-3.82684 -3.25,-5.44921 -2.70355,-1.64839 -5.04757,-1.98219 -13.94098,-1.9853 -5.88004,-0.002 -10.96137,0.43376 -11.29185,0.96848 -1.04978,1.69857 -3.49588,17.25321 -2.87197,18.26272 0.35259,0.5705 5.3772,0.81532 12.22669,0.59574 8.94104,-0.28663 12.22798,-0.77555 14.22398,-2.11575 z m 229.87642,0.6184 c -0.0153,-30.70833 -0.0194,-69.78333 -0.009,-86.83333 0.0101,-17.05 0.0226,-80.6125 0.0277,-141.25 l 0.009,-110.25 34.25,0.005 c 28.6268,0.004 36.4048,0.32163 47.3745,1.93557 12.6109,1.85541 24.0481,4.52067 25.6269,5.97198 1.1062,1.01677 0.9566,383.2798 -0.1503,384.38677 -1.1866,1.18655 -2.5808,-5.29797 -14.5773,-67.79893 -2.5336,-13.2 -5.0283,-25.0125 -5.5437,-26.25 -0.9129,-2.19166 -1.3261,-2.25 -15.9356,-2.25 -14.451,0 -15.0521,0.0821 -16.4705,2.25 -0.8096,1.2375 -12.9459,23.16695 -26.96938,48.73212 -14.02352,25.56516 -25.97145,46.64016 -26.55097,46.83333 -0.7296,0.2432 -1.06217,-16.8205 -1.08136,-55.48212 z m 51.60621,21.79376 c -0.7345,-1.18856 11.5038,-26.34788 13.0616,-26.85173 1.2176,-0.39381 3.2676,11.81281 3.6485,21.72464 l 0.2114,5.5 -8.1668,0.2891 c -4.4918,0.159 -8.4314,-0.1389 -8.7547,-0.66201 z m -305.0785,-138.12709 -39,-0.5 -0.53417,-165.5 c -0.53365,-165.33789 -0.53628,-165.50787 -2.68339,-173.53445 -5.33237,-19.9341 -11.03517,-30.39827 -23.19235,-42.55608 -5.24474,-5.245 -11.17174,-10.02287 -15.21918,-12.26845 -18.00588,-9.98993 -41.8833,-13.81903 -63.06621,-10.1136 -17.73475,3.10226 -30.15662,9.61766 -42.8047,22.45153 -15.98997,16.22484 -25.37696,36.53136 -31.67489,68.52105 -1.63343,8.29686 -1.81301,20.87533 -2.29849,161 l -0.52662,152 h -56 -56 l -0.56036,-227.5 c -0.51528,-209.19854 -0.69766,-228.1703 -2.26711,-235.83234 -2.03843,-9.9516 -5.10261,-19.43498 -7.74651,-23.97482 -1.05931,-1.81894 -1.92602,-3.73144 -1.92602,-4.25 0,-0.57813 19.72325,-0.94284 50.98746,-0.94284 h 50.98745 l 2.35619,3.75 c 5.89597,9.38375 9.66522,25.36913 9.66753,41 7.6e-4,5.12192 0.42193,9.25 0.94374,9.25 0.5183,0 3.1058,-2.5141 5.75,-5.58688 7.4478,-8.65498 21.66166,-20.78606 34.30763,-29.28047 20.72017,-13.91793 40.9727,-22.47439 65.65404,-27.73808 11.52636,-2.45818 14.95182,-2.7467 33.34596,-2.80866 16.17191,-0.0545 22.29458,0.31253 29,1.7383 39.17528,8.32982 71.27052,30.8354 95,66.61518 3.575,5.39045 7.0625,10.64678 7.75,11.68072 1.44092,2.16702 0.46453,3.22884 8.40612,-9.1416 16.24484,-25.30424 43.54692,-45.60463 75.92121,-56.45102 23.46462,-7.86137 39.96578,-10.32582 69.42267,-10.36829 12.99117,-0.0187 26.48133,0.48981 31,1.16861 56.57503,8.49877 95.4495,39.13581 116.9546,92.17219 11.62,28.65751 16.9528,57.29835 18.6696,100.26835 0.5692,14.24819 0.8518,26.08902 0.6278,26.31296 -0.2239,0.22393 -3.7472,-0.075 -7.8296,-0.66428 -4.0823,-0.58929 -28.1786,-1.3162 -53.5473,-1.61535 l -46.12487,-0.5439 -0.53001,-22.62889 c -0.74698,-31.89253 -4.13452,-48.37707 -13.3535,-64.98131 -5.11058,-9.20461 -17.84392,-21.69338 -26.90395,-26.38718 -13.02714,-6.74908 -22.74436,-8.97622 -41.4944,-9.51029 -23.91858,-0.68129 -37.88715,2.61521 -52.67539,12.43109 -28.44187,18.87863 -48.19008,59.61455 -48.2696,99.5688 l -0.0234,11.75 h -14.37756 c -10.84104,0 -14.65279,0.33164 -15.49652,1.34828 -0.8109,0.97707 -1.18876,40.00366 -1.37245,141.75 l -0.25347,140.40172 z"
       id="path1153" />
  </g>
</svg>
